<svg width="29" height="26" viewBox="0 0 29 26" fill="none" xmlns="http://www.w3.org/2000/svg">
  <path d="M0.778782 17.7524C0.711782 15.5884 0.503782 12.9804 2.39278 11.4684C5.29278 8.96244 9.45378 10.8434 12.8378 9.95144C13.5073 9.61737 14.0477 9.0714 14.3748 8.39846C14.702 7.72553 14.7976 6.96334 14.6468 6.23044C13.8623 5.90325 13.2396 5.27828 12.9153 4.49261C12.591 3.70695 12.5915 2.82472 12.9168 2.03944C13.1534 1.53148 13.5244 1.09783 13.9895 0.785365C14.4547 0.472896 14.9964 0.293483 15.5562 0.266511C16.1159 0.239539 16.6723 0.366032 17.1654 0.632325C17.6585 0.898618 18.0694 1.29459 18.3538 1.77744C18.5605 2.17366 18.6829 2.60836 18.7134 3.0542C18.744 3.50004 18.6819 3.94738 18.5311 4.36807C18.3804 4.78876 18.1442 5.1737 17.8375 5.49869C17.5307 5.82367 17.1601 6.08167 16.7488 6.25644C16.6584 8.20869 16.7059 10.1649 16.8908 12.1104C17.4048 13.8974 19.4318 14.3504 21.0598 14.1634C23.2328 14.0744 25.8188 13.9374 27.3748 15.7684C29.2508 17.7684 28.6038 20.7094 28.7138 23.1884C28.0088 23.3614 27.3078 23.5344 26.6068 23.7114C26.3718 21.3214 27.5068 17.9194 24.8638 16.5354C22.2208 15.7234 19.1828 17.0014 16.7168 15.3774C16.7568 17.3244 16.7298 19.2774 16.7438 21.2224C16.0389 21.3862 15.3365 21.5602 14.6368 21.7444C14.6368 18.3074 14.6188 14.8704 14.6498 11.4334C13.1198 12.5424 10.8938 11.8414 9.57178 13.2694C8.90862 14.1429 8.61423 15.2414 8.75178 16.3294C8.76478 19.2924 8.75178 22.2544 8.76478 25.2174C8.05849 25.3796 7.35474 25.5526 6.65378 25.7364C6.67178 22.2904 6.61378 18.8364 6.67578 15.3934C6.74068 14.2851 7.04319 13.2036 7.56278 12.2224C6.24578 12.3154 4.62278 12.0494 3.66278 13.1934C2.57578 14.2534 2.91278 15.8764 2.88678 17.2334C2.18029 17.3905 1.47745 17.5636 0.778782 17.7524V17.7524Z" fill="#22C55E" />
</svg>